# xmcd
# 
# Track frame offsets:
#     150
#     14229
#     26434
#     37603
#     49523
#     62982
#     73048
#     85171
#     96206
#     115641
#     126748
#     136511
#     150868
#     166791
#     179096
#     196541
#     209451
#     222078
#     251043
#     264726
#     275301
#     284518
#     295551
#     309518
# 
# Disc length: 4386
# 
# Revision: 3
# Processed by: cddbd v1.5.2PL0 Copyright (c) Steve Scherf et al.
# Submitted via: fre:ac v1.0.31
# 
DISCID=55112018
DTITLE=Koko Taylor - What It Takes - The Chess Years (Expanded Edition)
DYEAR=2009
DGENRE=Blues
TTITLE0=I Got What It Takes
TTITLE1=Don't Mess With The Messer
TTITLE2=Whatever I Am, You made Me
TTITLE3=I'm A Little Mixed Up
TTITLE4=Wang Dang Doodle
TTITLE5=(I Got) All You Need
TTITLE6=(Just) Love Me
TTITLE7=What Came First The Egg Or The Hen
TTITLE8=Insane Asylum
TTITLE9=Fire
TTITLE10=I Don't Care Who Knows
TTITLE11=Twenty Nine Ways (To My Baby's Door)
TTITLE12=Blue Prelude
TTITLE13=I Need More And More
TTITLE14=Um Huh My Baby
TTITLE15=Bills, Bills and More Bills
TTITLE16=Let Me Love You Baby
TTITLE17=I Got What It Takes (live duet with Muddy Waters)
TTITLE18=What Kind Of Man Is That? (bonus track)
TTITLE19=Blues Heaven (bonus track)
TTITLE20=Tell Me The Truth (bonus track)
TTITLE21=Good Advice (bonus track)
TTITLE22=Separate Of Integrate (bonus track)
TTITLE23=Tease Your Man (bonus track)
EXTD=
EXTT0=
EXTT1=
EXTT2=
EXTT3=
EXTT4=
EXTT5=
EXTT6=
EXTT7=
EXTT8=
EXTT9=
EXTT10=
EXTT11=
EXTT12=
EXTT13=
EXTT14=
EXTT15=
EXTT16=
EXTT17=
EXTT18=
EXTT19=
EXTT20=
EXTT21=
EXTT22=
EXTT23=
PLAYORDER=
